<svg id="visual" viewBox="0 0 3840 1080" width="3840" height="1080" xmlns="http://www.w3.org/2000/svg" xmlns:xlink="http://www.w3.org/1999/xlink" version="1.1"><g stroke-width="4" stroke-linejoin="bevel"><path d="M1841.9 605L1882.9 740L1961.1 722Z" fill="#003d9d" stroke="#001122"></path><path d="M1961.1 722L2087.1 549L1841.9 605Z" fill="#182e4e" stroke="#001122"></path><path d="M1548.8 641L1813.9 923L1882.9 740Z" fill="#0f3362" stroke="#001122"></path><path d="M1882.9 740L2039.1 927L1961.1 722Z" fill="#173fd4" stroke="#001122"></path><path d="M2219.2 689L2164.2 530L2087.1 549Z" fill="#003fb0" stroke="#001122"></path><path d="M1778.9 308L1684.8 466L1841.9 605Z" fill="#182e4e" stroke="#001122"></path><path d="M2219.2 689L2087.1 549L1961.1 722Z" fill="#1e293b" stroke="#001122"></path><path d="M1778.9 308L1841.9 605L1988.1 292Z" fill="#003b8a" stroke="#001122"></path><path d="M1841.9 605L1548.8 641L1882.9 740Z" fill="#0240c2" stroke="#001122"></path><path d="M1813.9 923L2039.1 927L1882.9 740Z" fill="#0f3362" stroke="#001122"></path><path d="M2221.2 866L2219.2 689L1961.1 722Z" fill="#1e293b" stroke="#001122"></path><path d="M1684.8 466L1548.8 641L1841.9 605Z" fill="#013776" stroke="#001122"></path><path d="M1988.1 292L1841.9 605L2087.1 549Z" fill="#003fb0" stroke="#001122"></path><path d="M1684.8 466L1439.7 583L1548.8 641Z" fill="#403af6" stroke="#001122"></path><path d="M2146.2 336L1988.1 292L2087.1 549Z" fill="#013776" stroke="#001122"></path><path d="M2039.1 927L2221.2 866L1961.1 722Z" fill="#1e293b" stroke="#001122"></path><path d="M1778.9 308L1666.8 346L1684.8 466Z" fill="#403af6" stroke="#001122"></path><path d="M2386.3 363L2146.2 336L2164.2 530Z" fill="#2b3ee5" stroke="#001122"></path><path d="M2164.2 530L2146.2 336L2087.1 549Z" fill="#013776" stroke="#001122"></path><path d="M1988.1 292L1851.9 255L1778.9 308Z" fill="#1e293b" stroke="#001122"></path><path d="M1778.9 308L1541.8 215L1666.8 346Z" fill="#0f3362" stroke="#001122"></path><path d="M1661.8 1080L1842.9 1080L1813.9 923Z" fill="#2b3ee5" stroke="#001122"></path><path d="M1813.9 923L1981.1 1080L2039.1 927Z" fill="#173fd4" stroke="#001122"></path><path d="M2039.1 927L2258.2 1080L2221.2 866Z" fill="#0240c2" stroke="#001122"></path><path d="M1842.9 1080L1981.1 1080L1813.9 923Z" fill="#003d9d" stroke="#001122"></path><path d="M1439.7 583L1469.7 713L1548.8 641Z" fill="#2b3ee5" stroke="#001122"></path><path d="M1548.8 641L1585.8 972L1813.9 923Z" fill="#0240c2" stroke="#001122"></path><path d="M1469.7 713L1585.8 972L1548.8 641Z" fill="#173fd4" stroke="#001122"></path><path d="M1666.8 346L1439.7 583L1684.8 466Z" fill="#0f3362" stroke="#001122"></path><path d="M1585.8 972L1661.8 1080L1813.9 923Z" fill="#173fd4" stroke="#001122"></path><path d="M1469.7 713L1476.7 901L1585.8 972Z" fill="#003fb0" stroke="#001122"></path><path d="M1585.8 972L1352.7 1080L1661.8 1080Z" fill="#003fb0" stroke="#001122"></path><path d="M1258.6 919L1476.7 901L1469.7 713Z" fill="#0f3362" stroke="#001122"></path><path d="M2221.2 866L2391.3 863L2219.2 689Z" fill="#2b3ee5" stroke="#001122"></path><path d="M2437.3 468L2386.3 363L2164.2 530Z" fill="#1e293b" stroke="#001122"></path><path d="M2258.2 1080L2391.3 863L2221.2 866Z" fill="#173fd4" stroke="#001122"></path><path d="M2157.2 184L1994.1 132L1988.1 292Z" fill="#013776" stroke="#001122"></path><path d="M1988.1 292L1994.1 132L1851.9 255Z" fill="#182e4e" stroke="#001122"></path><path d="M1768.9 0L1541.8 215L1778.9 308Z" fill="#182e4e" stroke="#001122"></path><path d="M2386.3 217L2157.2 184L2146.2 336Z" fill="#2b3ee5" stroke="#001122"></path><path d="M2146.2 336L2157.2 184L1988.1 292Z" fill="#173fd4" stroke="#001122"></path><path d="M1981.1 1080L2258.2 1080L2039.1 927Z" fill="#403af6" stroke="#001122"></path><path d="M2391.3 863L2448.3 766L2219.2 689Z" fill="#403af6" stroke="#001122"></path><path d="M2437.3 468L2164.2 530L2219.2 689Z" fill="#173fd4" stroke="#001122"></path><path d="M2448.3 766L2437.3 468L2219.2 689Z" fill="#003b8a" stroke="#001122"></path><path d="M1768.9 0L1778.9 308L1851.9 255Z" fill="#003b8a" stroke="#001122"></path><path d="M1666.8 346L1349.7 330L1439.7 583Z" fill="#013776" stroke="#001122"></path><path d="M2258.2 1080L2386.3 1080L2391.3 863Z" fill="#2b3ee5" stroke="#001122"></path><path d="M2391.3 863L2552.4 855L2448.3 766Z" fill="#003b8a" stroke="#001122"></path><path d="M1541.8 215L1349.7 330L1666.8 346Z" fill="#003fb0" stroke="#001122"></path><path d="M1439.7 583L1211.6 676L1469.7 713Z" fill="#013776" stroke="#001122"></path><path d="M2632.4 328L2386.3 217L2386.3 363Z" fill="#173fd4" stroke="#001122"></path><path d="M2386.3 363L2386.3 217L2146.2 336Z" fill="#1e293b" stroke="#001122"></path><path d="M2185.2 0L1988.1 0L1994.1 132Z" fill="#0240c2" stroke="#001122"></path><path d="M2185.2 0L1994.1 132L2157.2 184Z" fill="#003fb0" stroke="#001122"></path><path d="M1994.1 132L1768.9 0L1851.9 255Z" fill="#0240c2" stroke="#001122"></path><path d="M1988.1 0L1768.9 0L1994.1 132Z" fill="#003fb0" stroke="#001122"></path><path d="M1541.8 215L1352.7 159L1349.7 330Z" fill="#0240c2" stroke="#001122"></path><path d="M2448.3 766L2567.4 524L2437.3 468Z" fill="#1e293b" stroke="#001122"></path><path d="M2437.3 468L2632.4 328L2386.3 363Z" fill="#003b8a" stroke="#001122"></path><path d="M2591.4 675L2567.4 524L2448.3 766Z" fill="#003d9d" stroke="#001122"></path><path d="M2386.3 1080L2552.4 855L2391.3 863Z" fill="#0240c2" stroke="#001122"></path><path d="M2552.4 855L2591.4 675L2448.3 766Z" fill="#0240c2" stroke="#001122"></path><path d="M1217.6 559L1211.6 676L1439.7 583Z" fill="#173fd4" stroke="#001122"></path><path d="M1476.7 901L1352.7 1080L1585.8 972Z" fill="#013776" stroke="#001122"></path><path d="M1258.6 919L1352.7 1080L1476.7 901Z" fill="#0240c2" stroke="#001122"></path><path d="M1349.7 330L1217.6 559L1439.7 583Z" fill="#173fd4" stroke="#001122"></path><path d="M1211.6 676L1258.6 919L1469.7 713Z" fill="#013776" stroke="#001122"></path><path d="M1768.9 0L1626.8 0L1541.8 215Z" fill="#173fd4" stroke="#001122"></path><path d="M2386.3 217L2185.2 0L2157.2 184Z" fill="#1e293b" stroke="#001122"></path><path d="M1424.7 0L1352.7 159L1541.8 215Z" fill="#013776" stroke="#001122"></path><path d="M1349.7 330L1148.6 305L1217.6 559Z" fill="#003b8a" stroke="#001122"></path><path d="M1236.6 0L1264.6 205L1352.7 159Z" fill="#173fd4" stroke="#001122"></path><path d="M1352.7 159L1264.6 205L1349.7 330Z" fill="#0240c2" stroke="#001122"></path><path d="M1258.6 919L1234.6 1080L1352.7 1080Z" fill="#0240c2" stroke="#001122"></path><path d="M1017.5 906L1234.6 1080L1258.6 919Z" fill="#1e293b" stroke="#001122"></path><path d="M2795.5 367L2632.4 328L2567.4 524Z" fill="#403af6" stroke="#001122"></path><path d="M2567.4 524L2632.4 328L2437.3 468Z" fill="#003d9d" stroke="#001122"></path><path d="M2386.3 217L2470.3 0L2185.2 0Z" fill="#403af6" stroke="#001122"></path><path d="M2386.3 1080L2588.4 1080L2552.4 855Z" fill="#0240c2" stroke="#001122"></path><path d="M2552.4 855L2785.5 856L2591.4 675Z" fill="#173fd4" stroke="#001122"></path><path d="M2591.4 675L2835.5 542L2567.4 524Z" fill="#2b3ee5" stroke="#001122"></path><path d="M1626.8 0L1424.7 0L1541.8 215Z" fill="#182e4e" stroke="#001122"></path><path d="M1264.6 205L1148.6 305L1349.7 330Z" fill="#403af6" stroke="#001122"></path><path d="M941.5 574L1030.5 767L1211.6 676Z" fill="#013776" stroke="#001122"></path><path d="M1211.6 676L1030.5 767L1258.6 919Z" fill="#173fd4" stroke="#001122"></path><path d="M941.5 206L1148.6 305L1264.6 205Z" fill="#403af6" stroke="#001122"></path><path d="M2671.4 164L2470.3 0L2386.3 217Z" fill="#403af6" stroke="#001122"></path><path d="M941.5 574L1211.6 676L1217.6 559Z" fill="#003fb0" stroke="#001122"></path><path d="M2588.4 1080L2785.5 856L2552.4 855Z" fill="#003fb0" stroke="#001122"></path><path d="M2632.4 328L2671.4 164L2386.3 217Z" fill="#2b3ee5" stroke="#001122"></path><path d="M2821.5 217L2671.4 164L2632.4 328Z" fill="#182e4e" stroke="#001122"></path><path d="M1030.5 767L1017.5 906L1258.6 919Z" fill="#182e4e" stroke="#001122"></path><path d="M2785.5 856L2830.5 743L2591.4 675Z" fill="#003fb0" stroke="#001122"></path><path d="M2835.5 542L2795.5 367L2567.4 524Z" fill="#0f3362" stroke="#001122"></path><path d="M2830.5 743L2835.5 542L2591.4 675Z" fill="#2b3ee5" stroke="#001122"></path><path d="M1424.7 0L1236.6 0L1352.7 159Z" fill="#182e4e" stroke="#001122"></path><path d="M2838.5 0L2591.4 0L2671.4 164Z" fill="#003d9d" stroke="#001122"></path><path d="M2671.4 164L2591.4 0L2470.3 0Z" fill="#1e293b" stroke="#001122"></path><path d="M941.5 206L984.5 395L1148.6 305Z" fill="#182e4e" stroke="#001122"></path><path d="M1148.6 305L984.5 395L1217.6 559Z" fill="#003fb0" stroke="#001122"></path><path d="M1030.5 767L865.4 958L1017.5 906Z" fill="#403af6" stroke="#001122"></path><path d="M984.5 395L941.5 574L1217.6 559Z" fill="#403af6" stroke="#001122"></path><path d="M865.4 958L1024.5 1080L1017.5 906Z" fill="#003fb0" stroke="#001122"></path><path d="M1017.5 906L1024.5 1080L1234.6 1080Z" fill="#1e293b" stroke="#001122"></path><path d="M3083.6 282L2821.5 217L2795.5 367Z" fill="#1e293b" stroke="#001122"></path><path d="M2795.5 367L2821.5 217L2632.4 328Z" fill="#403af6" stroke="#001122"></path><path d="M941.5 574L870.4 690L1030.5 767Z" fill="#0f3362" stroke="#001122"></path><path d="M878.4 466L870.4 690L941.5 574Z" fill="#003b8a" stroke="#001122"></path><path d="M842.4 385L878.4 466L984.5 395Z" fill="#403af6" stroke="#001122"></path><path d="M984.5 395L878.4 466L941.5 574Z" fill="#173fd4" stroke="#001122"></path><path d="M2785.5 856L2954.6 710L2830.5 743Z" fill="#003d9d" stroke="#001122"></path><path d="M2830.5 743L2954.6 710L2835.5 542Z" fill="#013776" stroke="#001122"></path><path d="M2835.5 542L3041.6 525L2795.5 367Z" fill="#003b8a" stroke="#001122"></path><path d="M2588.4 1080L2863.5 1080L2785.5 856Z" fill="#1e293b" stroke="#001122"></path><path d="M3051.6 952L2954.6 710L2785.5 856Z" fill="#003b8a" stroke="#001122"></path><path d="M973.5 0L941.5 206L1264.6 205Z" fill="#0240c2" stroke="#001122"></path><path d="M870.4 690L865.4 958L1030.5 767Z" fill="#003b8a" stroke="#001122"></path><path d="M941.5 206L842.4 385L984.5 395Z" fill="#0f3362" stroke="#001122"></path><path d="M606.3 644L638.3 836L870.4 690Z" fill="#003fb0" stroke="#001122"></path><path d="M638.3 836L820.4 1080L865.4 958Z" fill="#1e293b" stroke="#001122"></path><path d="M1236.6 0L973.5 0L1264.6 205Z" fill="#0240c2" stroke="#001122"></path><path d="M941.5 206L683.3 178L842.4 385Z" fill="#2b3ee5" stroke="#001122"></path><path d="M2821.5 217L2838.5 0L2671.4 164Z" fill="#182e4e" stroke="#001122"></path><path d="M3008.6 107L2838.5 0L2821.5 217Z" fill="#003d9d" stroke="#001122"></path><path d="M3213.7 475L3041.6 525L3290.7 729Z" fill="#013776" stroke="#001122"></path><path d="M2954.6 710L3041.6 525L2835.5 542Z" fill="#003d9d" stroke="#001122"></path><path d="M638.3 836L865.4 958L870.4 690Z" fill="#003d9d" stroke="#001122"></path><path d="M865.4 958L820.4 1080L1024.5 1080Z" fill="#003b8a" stroke="#001122"></path><path d="M2863.5 1080L3051.6 952L2785.5 856Z" fill="#182e4e" stroke="#001122"></path><path d="M973.5 0L855.4 113L941.5 206Z" fill="#003b8a" stroke="#001122"></path><path d="M2863.5 1080L3062.6 1080L3051.6 952Z" fill="#003fb0" stroke="#001122"></path><path d="M3172.7 383L3083.6 282L3041.6 525Z" fill="#003d9d" stroke="#001122"></path><path d="M3083.6 282L3008.6 107L2821.5 217Z" fill="#173fd4" stroke="#001122"></path><path d="M3172.7 383L3041.6 525L3213.7 475Z" fill="#003fb0" stroke="#001122"></path><path d="M3041.6 525L3083.6 282L2795.5 367Z" fill="#0240c2" stroke="#001122"></path><path d="M973.5 0L842.4 0L855.4 113Z" fill="#013776" stroke="#001122"></path><path d="M606.3 644L878.4 466L598.3 407Z" fill="#0240c2" stroke="#001122"></path><path d="M606.3 644L870.4 690L878.4 466Z" fill="#1e293b" stroke="#001122"></path><path d="M878.4 466L842.4 385L598.3 407Z" fill="#1e293b" stroke="#001122"></path><path d="M3041.6 525L2954.6 710L3290.7 729Z" fill="#003d9d" stroke="#001122"></path><path d="M3178.7 0L3091.6 0L3008.6 107Z" fill="#403af6" stroke="#001122"></path><path d="M683.3 178L941.5 206L855.4 113Z" fill="#403af6" stroke="#001122"></path><path d="M842.4 0L683.3 178L855.4 113Z" fill="#0f3362" stroke="#001122"></path><path d="M3290.7 729L2954.6 710L3051.6 952Z" fill="#0f3362" stroke="#001122"></path><path d="M3062.6 1080L3163.7 1080L3051.6 952Z" fill="#003fb0" stroke="#001122"></path><path d="M683.3 178L598.3 407L842.4 385Z" fill="#0f3362" stroke="#001122"></path><path d="M3178.7 0L3008.6 107L3083.6 282Z" fill="#003fb0" stroke="#001122"></path><path d="M3008.6 107L3091.6 0L2838.5 0Z" fill="#0f3362" stroke="#001122"></path><path d="M3178.7 0L3083.6 282L3292.7 230Z" fill="#0240c2" stroke="#001122"></path><path d="M598.3 407L545.3 606L606.3 644Z" fill="#0240c2" stroke="#001122"></path><path d="M606.3 644L437.2 719L638.3 836Z" fill="#403af6" stroke="#001122"></path><path d="M380.2 935L602.3 1080L638.3 836Z" fill="#003d9d" stroke="#001122"></path><path d="M638.3 836L602.3 1080L820.4 1080Z" fill="#173fd4" stroke="#001122"></path><path d="M3285.7 876L3290.7 729L3051.6 952Z" fill="#182e4e" stroke="#001122"></path><path d="M3292.7 230L3083.6 282L3172.7 383Z" fill="#003b8a" stroke="#001122"></path><path d="M3163.7 1080L3285.7 876L3051.6 952Z" fill="#403af6" stroke="#001122"></path><path d="M3292.7 230L3172.7 383L3461.8 352Z" fill="#013776" stroke="#001122"></path><path d="M3398.8 201L3292.7 230L3461.8 352Z" fill="#173fd4" stroke="#001122"></path><path d="M598.3 407L453.2 535L545.3 606Z" fill="#0f3362" stroke="#001122"></path><path d="M545.3 606L437.2 719L606.3 644Z" fill="#2b3ee5" stroke="#001122"></path><path d="M461.2 335L453.2 535L598.3 407Z" fill="#003fb0" stroke="#001122"></path><path d="M453.2 535L437.2 719L545.3 606Z" fill="#1e293b" stroke="#001122"></path><path d="M683.3 178L461.2 335L598.3 407Z" fill="#003d9d" stroke="#001122"></path><path d="M200.1 861L380.2 935L437.2 719Z" fill="#0240c2" stroke="#001122"></path><path d="M540.3 0L461.2 335L683.3 178Z" fill="#0f3362" stroke="#001122"></path><path d="M3285.7 876L3399.8 690L3290.7 729Z" fill="#003fb0" stroke="#001122"></path><path d="M3290.7 729L3435.8 594L3213.7 475Z" fill="#403af6" stroke="#001122"></path><path d="M3469.8 934L3399.8 690L3285.7 876Z" fill="#403af6" stroke="#001122"></path><path d="M842.4 0L540.3 0L683.3 178Z" fill="#173fd4" stroke="#001122"></path><path d="M3399.8 690L3435.8 594L3290.7 729Z" fill="#2b3ee5" stroke="#001122"></path><path d="M240.1 611L437.2 719L453.2 535Z" fill="#003d9d" stroke="#001122"></path><path d="M437.2 719L380.2 935L638.3 836Z" fill="#1e293b" stroke="#001122"></path><path d="M3461.8 352L3172.7 383L3213.7 475Z" fill="#013776" stroke="#001122"></path><path d="M3292.7 230L3373.8 0L3178.7 0Z" fill="#003fb0" stroke="#001122"></path><path d="M380.2 935L392.2 1080L602.3 1080Z" fill="#1e293b" stroke="#001122"></path><path d="M3435.8 594L3461.8 352L3213.7 475Z" fill="#013776" stroke="#001122"></path><path d="M3483.8 1080L3469.8 934L3285.7 876Z" fill="#0240c2" stroke="#001122"></path><path d="M3708.9 709L3641.9 543L3435.8 594Z" fill="#003fb0" stroke="#001122"></path><path d="M3435.8 594L3641.9 543L3461.8 352Z" fill="#003d9d" stroke="#001122"></path><path d="M3664.9 0L3373.8 0L3398.8 201Z" fill="#013776" stroke="#001122"></path><path d="M3398.8 201L3373.8 0L3292.7 230Z" fill="#173fd4" stroke="#001122"></path><path d="M540.3 0L325.2 160L461.2 335Z" fill="#003d9d" stroke="#001122"></path><path d="M226.1 370L240.1 611L453.2 535Z" fill="#0240c2" stroke="#001122"></path><path d="M3163.7 1080L3483.8 1080L3285.7 876Z" fill="#003b8a" stroke="#001122"></path><path d="M3708.9 709L3435.8 594L3399.8 690Z" fill="#182e4e" stroke="#001122"></path><path d="M428.2 0L325.2 160L540.3 0Z" fill="#403af6" stroke="#001122"></path><path d="M226.1 370L453.2 535L461.2 335Z" fill="#2b3ee5" stroke="#001122"></path><path d="M380.2 935L131.1 1080L392.2 1080Z" fill="#403af6" stroke="#001122"></path><path d="M325.2 160L226.1 370L461.2 335Z" fill="#2b3ee5" stroke="#001122"></path><path d="M166.1 706L437.2 719L240.1 611Z" fill="#182e4e" stroke="#001122"></path><path d="M166.1 706L200.1 861L437.2 719Z" fill="#0f3362" stroke="#001122"></path><path d="M0 594L166.1 706L240.1 611Z" fill="#003fb0" stroke="#001122"></path><path d="M3639.9 867L3399.8 690L3469.8 934Z" fill="#182e4e" stroke="#001122"></path><path d="M3461.8 352L3711.9 183L3398.8 201Z" fill="#1e293b" stroke="#001122"></path><path d="M3630.9 1080L3639.9 867L3469.8 934Z" fill="#182e4e" stroke="#001122"></path><path d="M325.2 160L181.1 235L226.1 370Z" fill="#2b3ee5" stroke="#001122"></path><path d="M226.1 370L0 594L240.1 611Z" fill="#0f3362" stroke="#001122"></path><path d="M232.1 0L181.1 235L325.2 160Z" fill="#003fb0" stroke="#001122"></path><path d="M3483.8 1080L3630.9 1080L3469.8 934Z" fill="#403af6" stroke="#001122"></path><path d="M428.2 0L232.1 0L325.2 160Z" fill="#2b3ee5" stroke="#001122"></path><path d="M3840 740L3708.9 709L3639.9 867Z" fill="#003d9d" stroke="#001122"></path><path d="M3639.9 867L3708.9 709L3399.8 690Z" fill="#2b3ee5" stroke="#001122"></path><path d="M3840 505L3694.9 366L3641.9 543Z" fill="#003d9d" stroke="#001122"></path><path d="M3641.9 543L3694.9 366L3461.8 352Z" fill="#0240c2" stroke="#001122"></path><path d="M0 784L200.1 861L166.1 706Z" fill="#0240c2" stroke="#001122"></path><path d="M0 974L131.1 1080L200.1 861Z" fill="#003fb0" stroke="#001122"></path><path d="M200.1 861L131.1 1080L380.2 935Z" fill="#003d9d" stroke="#001122"></path><path d="M3840 258L3711.9 183L3694.9 366Z" fill="#173fd4" stroke="#001122"></path><path d="M3694.9 366L3711.9 183L3461.8 352Z" fill="#013776" stroke="#001122"></path><path d="M3711.9 183L3664.9 0L3398.8 201Z" fill="#003fb0" stroke="#001122"></path><path d="M0 398L226.1 370L181.1 235Z" fill="#003b8a" stroke="#001122"></path><path d="M0 398L0 594L226.1 370Z" fill="#173fd4" stroke="#001122"></path><path d="M0 594L0 784L166.1 706Z" fill="#0240c2" stroke="#001122"></path><path d="M0 166L0 398L181.1 235Z" fill="#003b8a" stroke="#001122"></path><path d="M0 784L0 974L200.1 861Z" fill="#1e293b" stroke="#001122"></path><path d="M3840 957L3840 740L3639.9 867Z" fill="#013776" stroke="#001122"></path><path d="M3708.9 709L3840 505L3641.9 543Z" fill="#003b8a" stroke="#001122"></path><path d="M3840 740L3840 505L3708.9 709Z" fill="#013776" stroke="#001122"></path><path d="M3711.9 183L3840 0L3664.9 0Z" fill="#2b3ee5" stroke="#001122"></path><path d="M0 974L0 1080L131.1 1080Z" fill="#403af6" stroke="#001122"></path><path d="M3840 505L3840 399L3694.9 366Z" fill="#0240c2" stroke="#001122"></path><path d="M3630.9 1080L3840 957L3639.9 867Z" fill="#2b3ee5" stroke="#001122"></path><path d="M232.1 0L0 166L181.1 235Z" fill="#0f3362" stroke="#001122"></path><path d="M3840 399L3840 258L3694.9 366Z" fill="#013776" stroke="#001122"></path><path d="M3630.9 1080L3840 1080L3840 957Z" fill="#003fb0" stroke="#001122"></path><path d="M232.1 0L0 0L0 166Z" fill="#0f3362" stroke="#001122"></path><path d="M3840 258L3840 0L3711.9 183Z" fill="#013776" stroke="#001122"></path></g></svg>