<svg id="visual" viewBox="0 0 3840 1080" width="3840" height="1080" xmlns="http://www.w3.org/2000/svg" xmlns:xlink="http://www.w3.org/1999/xlink" version="1.1"><rect width="3840" height="1080" fill="#1e293b"></rect><g><g transform="translate(1263 790)"><path d="M0 -88.6L76.7 -44.3L76.7 44.3L0 88.6L-76.7 44.3L-76.7 -44.3Z" fill="#2121ea"></path></g><g transform="translate(2214 930)"><path d="M0 -87L75.3 -43.5L75.3 43.5L0 87L-75.3 43.5L-75.3 -43.5Z" fill="#2121ea"></path></g><g transform="translate(734 725)"><path d="M0 -60L52 -30L52 30L0 60L-52 30L-52 -30Z" fill="#2121ea"></path></g><g transform="translate(2397 783)"><path d="M0 -58L50.2 -29L50.2 29L0 58L-50.2 29L-50.2 -29Z" fill="#2121ea"></path></g><g transform="translate(630 243)"><path d="M0 -43L37.2 -21.5L37.2 21.5L0 43L-37.2 21.5L-37.2 -21.5Z" fill="#2121ea"></path></g><g transform="translate(952 321)"><path d="M0 -72L62.4 -36L62.4 36L0 72L-62.4 36L-62.4 -36Z" fill="#2121ea"></path></g><g transform="translate(2909 998)"><path d="M0 -84L72.7 -42L72.7 42L0 84L-72.7 42L-72.7 -42Z" fill="#2121ea"></path></g><g transform="translate(38 933)"><path d="M0 -47L40.7 -23.5L40.7 23.5L0 47L-40.7 23.5L-40.7 -23.5Z" fill="#2121ea"></path></g><g transform="translate(3114 1054)"><path d="M0 -46L39.8 -23L39.8 23L0 46L-39.8 23L-39.8 -23Z" fill="#2121ea"></path></g><g transform="translate(355 984)"><path d="M0 -38L32.9 -19L32.9 19L0 38L-32.9 19L-32.9 -19Z" fill="#2121ea"></path></g><g transform="translate(985 1035)"><path d="M0 -42L36.4 -21L36.4 21L0 42L-36.4 21L-36.4 -21Z" fill="#2121ea"></path></g><g transform="translate(3772 735)"><path d="M0 -64L55.4 -32L55.4 32L0 64L-55.4 32L-55.4 -32Z" fill="#2121ea"></path></g><g transform="translate(1507 502)"><path d="M0 -53L45.9 -26.5L45.9 26.5L0 53L-45.9 26.5L-45.9 -26.5Z" fill="#2121ea"></path></g><g transform="translate(441 199)"><path d="M0 -53L45.9 -26.5L45.9 26.5L0 53L-45.9 26.5L-45.9 -26.5Z" fill="#2121ea"></path></g><g transform="translate(1609 21)"><path d="M0 -87L75.3 -43.5L75.3 43.5L0 87L-75.3 43.5L-75.3 -43.5Z" fill="#2121ea"></path></g><g transform="translate(1064 796)"><path d="M0 -52L45 -26L45 26L0 52L-45 26L-45 -26Z" fill="#2121ea"></path></g><g transform="translate(372 434)"><path d="M0 -83L71.9 -41.5L71.9 41.5L0 83L-71.9 41.5L-71.9 -41.5Z" fill="#2121ea"></path></g><g transform="translate(3530 844)"><path d="M0 -63L54.6 -31.5L54.6 31.5L0 63L-54.6 31.5L-54.6 -31.5Z" fill="#2121ea"></path></g><g transform="translate(3084 182)"><path d="M0 -64L55.4 -32L55.4 32L0 64L-55.4 32L-55.4 -32Z" fill="#2121ea"></path></g><g transform="translate(2038 85)"><path d="M0 -46L39.8 -23L39.8 23L0 46L-39.8 23L-39.8 -23Z" fill="#2121ea"></path></g><g transform="translate(2008 909)"><path d="M0 -83L71.9 -41.5L71.9 41.5L0 83L-71.9 41.5L-71.9 -41.5Z" fill="#2121ea"></path></g><g transform="translate(1563 327)"><path d="M0 -58L50.2 -29L50.2 29L0 58L-50.2 29L-50.2 -29Z" fill="#2121ea"></path></g><g transform="translate(1535 681)"><path d="M0 -42L36.4 -21L36.4 21L0 42L-36.4 21L-36.4 -21Z" fill="#2121ea"></path></g><g transform="translate(2580 770)"><path d="M0 -75L65 -37.5L65 37.5L0 75L-65 37.5L-65 -37.5Z" fill="#2121ea"></path></g><g transform="translate(113 93)"><path d="M0 -56L48.5 -28L48.5 28L0 56L-48.5 28L-48.5 -28Z" fill="#2121ea"></path></g><g transform="translate(3288 908)"><path d="M0 -67L58 -33.5L58 33.5L0 67L-58 33.5L-58 -33.5Z" fill="#2121ea"></path></g><g transform="translate(1095 514)"><path d="M0 -87L75.3 -43.5L75.3 43.5L0 87L-75.3 43.5L-75.3 -43.5Z" fill="#2121ea"></path></g><g transform="translate(2532 246)"><path d="M0 -78L67.5 -39L67.5 39L0 78L-67.5 39L-67.5 -39Z" fill="#2121ea"></path></g><g transform="translate(432 721)"><path d="M0 -72L62.4 -36L62.4 36L0 72L-62.4 36L-62.4 -36Z" fill="#2121ea"></path></g><g transform="translate(2908 479)"><path d="M0 -65L56.3 -32.5L56.3 32.5L0 65L-56.3 32.5L-56.3 -32.5Z" fill="#2121ea"></path></g><g transform="translate(3293 612)"><path d="M0 -77L66.7 -38.5L66.7 38.5L0 77L-66.7 38.5L-66.7 -38.5Z" fill="#2121ea"></path></g><g transform="translate(2728 303)"><path d="M0 -87L75.3 -43.5L75.3 43.5L0 87L-75.3 43.5L-75.3 -43.5Z" fill="#2121ea"></path></g><g transform="translate(1787 720)"><path d="M0 -80L69.3 -40L69.3 40L0 80L-69.3 40L-69.3 -40Z" fill="#2121ea"></path></g><g transform="translate(647 1060)"><path d="M0 -61L52.8 -30.5L52.8 30.5L0 61L-52.8 30.5L-52.8 -30.5Z" fill="#2121ea"></path></g><g transform="translate(1293 80)"><path d="M0 -54L46.8 -27L46.8 27L0 54L-46.8 27L-46.8 -27Z" fill="#2121ea"></path></g><g transform="translate(1109 26)"><path d="M0 -76L65.8 -38L65.8 38L0 76L-65.8 38L-65.8 -38Z" fill="#2121ea"></path></g><g transform="translate(3838 530)"><path d="M0 -42L36.4 -21L36.4 21L0 42L-36.4 21L-36.4 -21Z" fill="#2121ea"></path></g><g transform="translate(224 593)"><path d="M0 -53L45.9 -26.5L45.9 26.5L0 53L-45.9 26.5L-45.9 -26.5Z" fill="#2121ea"></path></g><g transform="translate(11 677)"><path d="M0 -55L47.6 -27.5L47.6 27.5L0 55L-47.6 27.5L-47.6 -27.5Z" fill="#2121ea"></path></g><g transform="translate(2362 389)"><path d="M0 -64L55.4 -32L55.4 32L0 64L-55.4 32L-55.4 -32Z" fill="#2121ea"></path></g><g transform="translate(3700 407)"><path d="M0 -73L63.2 -36.5L63.2 36.5L0 73L-63.2 36.5L-63.2 -36.5Z" fill="#2121ea"></path></g><g transform="translate(924 112)"><path d="M0 -59L51.1 -29.5L51.1 29.5L0 59L-51.1 29.5L-51.1 -29.5Z" fill="#2121ea"></path></g><g transform="translate(1474 168)"><path d="M0 -40L34.6 -20L34.6 20L0 40L-34.6 20L-34.6 -20Z" fill="#2121ea"></path></g><g transform="translate(2283 41)"><path d="M0 -44L38.1 -22L38.1 22L0 44L-38.1 22L-38.1 -22Z" fill="#2121ea"></path></g><g transform="translate(1874 14)"><path d="M0 -62L53.7 -31L53.7 31L0 62L-53.7 31L-53.7 -31Z" fill="#2121ea"></path></g><g transform="translate(1255 326)"><path d="M0 -53L45.9 -26.5L45.9 26.5L0 53L-45.9 26.5L-45.9 -26.5Z" fill="#2121ea"></path></g><g transform="translate(3655 1020)"><path d="M0 -47L40.7 -23.5L40.7 23.5L0 47L-40.7 23.5L-40.7 -23.5Z" fill="#2121ea"></path></g><g transform="translate(2757 77)"><path d="M0 -34L29.4 -17L29.4 17L0 34L-29.4 17L-29.4 -17Z" fill="#2121ea"></path></g><g transform="translate(3572 111)"><path d="M0 -56L48.5 -28L48.5 28L0 56L-48.5 28L-48.5 -28Z" fill="#2121ea"></path></g><g transform="translate(73 455)"><path d="M0 -49L42.4 -24.5L42.4 24.5L0 49L-42.4 24.5L-42.4 -24.5Z" fill="#2121ea"></path></g><g transform="translate(1740 1005)"><path d="M0 -70L60.6 -35L60.6 35L0 70L-60.6 35L-60.6 -35Z" fill="#2121ea"></path></g><g transform="translate(2789 844)"><path d="M0 -69L59.8 -34.5L59.8 34.5L0 69L-59.8 34.5L-59.8 -34.5Z" fill="#2121ea"></path></g><g transform="translate(2618 961)"><path d="M0 -53L45.9 -26.5L45.9 26.5L0 53L-45.9 26.5L-45.9 -26.5Z" fill="#2121ea"></path></g><g transform="translate(1474 879)"><path d="M0 -76L65.8 -38L65.8 38L0 76L-65.8 38L-65.8 -38Z" fill="#2121ea"></path></g><g transform="translate(576 46)"><path d="M0 -42L36.4 -21L36.4 21L0 42L-36.4 21L-36.4 -21Z" fill="#2121ea"></path></g><g transform="translate(2326 215)"><path d="M0 -35L30.3 -17.5L30.3 17.5L0 35L-30.3 17.5L-30.3 -17.5Z" fill="#2121ea"></path></g><g transform="translate(2585 13)"><path d="M0 -51L44.2 -25.5L44.2 25.5L0 51L-44.2 25.5L-44.2 -25.5Z" fill="#2121ea"></path></g><g transform="translate(3037 821)"><path d="M0 -72L62.4 -36L62.4 36L0 72L-62.4 36L-62.4 -36Z" fill="#2121ea"></path></g><g transform="translate(2062 722)"><path d="M0 -54L46.8 -27L46.8 27L0 54L-46.8 27L-46.8 -27Z" fill="#2121ea"></path></g><g transform="translate(1250 1035)"><path d="M0 -76L65.8 -38L65.8 38L0 76L-65.8 38L-65.8 -38Z" fill="#2121ea"></path></g><g transform="translate(1988 370)"><path d="M0 -87L75.3 -43.5L75.3 43.5L0 87L-75.3 43.5L-75.3 -43.5Z" fill="#2121ea"></path></g><g transform="translate(3336 396)"><path d="M0 -47L40.7 -23.5L40.7 23.5L0 47L-40.7 23.5L-40.7 -23.5Z" fill="#2121ea"></path></g><g transform="translate(3461 542)"><path d="M0 -55L47.6 -27.5L47.6 27.5L0 55L-47.6 27.5L-47.6 -27.5Z" fill="#2121ea"></path></g><g transform="translate(2826 646)"><path d="M0 -56L48.5 -28L48.5 28L0 56L-48.5 28L-48.5 -28Z" fill="#2121ea"></path></g><g transform="translate(227 823)"><path d="M0 -73L63.2 -36.5L63.2 36.5L0 73L-63.2 36.5L-63.2 -36.5Z" fill="#2121ea"></path></g><g transform="translate(3151 411)"><path d="M0 -87L75.3 -43.5L75.3 43.5L0 87L-75.3 43.5L-75.3 -43.5Z" fill="#2121ea"></path></g><g transform="translate(273 2)"><path d="M0 -69L59.8 -34.5L59.8 34.5L0 69L-59.8 34.5L-59.8 -34.5Z" fill="#2121ea"></path></g><g transform="translate(163 296)"><path d="M0 -69L59.8 -34.5L59.8 34.5L0 69L-59.8 34.5L-59.8 -34.5Z" fill="#2121ea"></path></g><g transform="translate(2403 1075)"><path d="M0 -73L63.2 -36.5L63.2 36.5L0 73L-63.2 36.5L-63.2 -36.5Z" fill="#2121ea"></path></g><g transform="translate(1300 511)"><path d="M0 -77L66.7 -38.5L66.7 38.5L0 77L-66.7 38.5L-66.7 -38.5Z" fill="#2121ea"></path></g><g transform="translate(1767 516)"><path d="M0 -71L61.5 -35.5L61.5 35.5L0 71L-61.5 35.5L-61.5 -35.5Z" fill="#2121ea"></path></g><g transform="translate(1577 1079)"><path d="M0 -44L38.1 -22L38.1 22L0 44L-38.1 22L-38.1 -22Z" fill="#2121ea"></path></g><g transform="translate(542 497)"><path d="M0 -77L66.7 -38.5L66.7 38.5L0 77L-66.7 38.5L-66.7 -38.5Z" fill="#2121ea"></path></g><g transform="translate(2409 574)"><path d="M0 -81L70.1 -40.5L70.1 40.5L0 81L-70.1 40.5L-70.1 -40.5Z" fill="#2121ea"></path></g><g transform="translate(3274 48)"><path d="M0 -72L62.4 -36L62.4 36L0 72L-62.4 36L-62.4 -36Z" fill="#2121ea"></path></g><g transform="translate(752 905)"><path d="M0 -53L45.9 -26.5L45.9 26.5L0 53L-45.9 26.5L-45.9 -26.5Z" fill="#2121ea"></path></g><g transform="translate(3426 1051)"><path d="M0 -42L36.4 -21L36.4 21L0 42L-36.4 21L-36.4 -21Z" fill="#2121ea"></path></g><g transform="translate(3628 603)"><path d="M0 -62L53.7 -31L53.7 31L0 62L-53.7 31L-53.7 -31Z" fill="#2121ea"></path></g><g transform="translate(812 557)"><path d="M0 -34L29.4 -17L29.4 17L0 34L-29.4 17L-29.4 -17Z" fill="#2121ea"></path></g><g transform="translate(3377 206)"><path d="M0 -79L68.4 -39.5L68.4 39.5L0 79L-68.4 39.5L-68.4 -39.5Z" fill="#2121ea"></path></g><g transform="translate(3826 214)"><path d="M0 -69L59.8 -34.5L59.8 34.5L0 69L-59.8 34.5L-59.8 -34.5Z" fill="#2121ea"></path></g><g transform="translate(2195 557)"><path d="M0 -80L69.3 -40L69.3 40L0 80L-69.3 40L-69.3 -40Z" fill="#2121ea"></path></g><g transform="translate(1802 311)"><path d="M0 -80L69.3 -40L69.3 40L0 80L-69.3 40L-69.3 -40Z" fill="#2121ea"></path></g><g transform="translate(3818 921)"><path d="M0 -52L45 -26L45 26L0 52L-45 26L-45 -26Z" fill="#2121ea"></path></g><g transform="translate(3098 601)"><path d="M0 -57L49.4 -28.5L49.4 28.5L0 57L-49.4 28.5L-49.4 -28.5Z" fill="#2121ea"></path></g><g transform="translate(2973 31)"><path d="M0 -49L42.4 -24.5L42.4 24.5L0 49L-42.4 24.5L-42.4 -24.5Z" fill="#2121ea"></path></g><g transform="translate(764 370)"><path d="M0 -71L61.5 -35.5L61.5 35.5L0 71L-61.5 35.5L-61.5 -35.5Z" fill="#2121ea"></path></g><g transform="translate(2643 591)"><path d="M0 -41L35.5 -20.5L35.5 20.5L0 41L-35.5 20.5L-35.5 -20.5Z" fill="#2121ea"></path></g><g transform="translate(3550 311)"><path d="M0 -70L60.6 -35L60.6 35L0 70L-60.6 35L-60.6 -35Z" fill="#2121ea"></path></g><g transform="translate(1943 557)"><path d="M0 -80L69.3 -40L69.3 40L0 80L-69.3 40L-69.3 -40Z" fill="#2121ea"></path></g><g transform="translate(3795 9)"><path d="M0 -86L74.5 -43L74.5 43L0 86L-74.5 43L-74.5 -43Z" fill="#2121ea"></path></g><g transform="translate(576 828)"><path d="M0 -84L72.7 -42L72.7 42L0 84L-72.7 42L-72.7 -42Z" fill="#2121ea"></path></g><g transform="translate(2930 285)"><path d="M0 -51L44.2 -25.5L44.2 25.5L0 51L-44.2 25.5L-44.2 -25.5Z" fill="#2121ea"></path></g><g transform="translate(176 1057)"><path d="M0 -60L52 -30L52 30L0 60L-52 30L-52 -30Z" fill="#2121ea"></path></g><g transform="translate(2132 247)"><path d="M0 -40L34.6 -20L34.6 20L0 40L-34.6 20L-34.6 -20Z" fill="#2121ea"></path></g><g transform="translate(769 11)"><path d="M0 -41L35.5 -20.5L35.5 20.5L0 41L-35.5 20.5L-35.5 -20.5Z" fill="#2121ea"></path></g><g transform="translate(1126 203)"><path d="M0 -66L57.2 -33L57.2 33L0 66L-57.2 33L-57.2 -33Z" fill="#2121ea"></path></g></g></svg>