<svg id="visual" viewBox="0 0 3840 1080" width="3840" height="1080" xmlns="http://www.w3.org/2000/svg" xmlns:xlink="http://www.w3.org/1999/xlink" version="1.1"><rect width="3840" height="1080" fill="#1e293b"></rect><g><g transform="translate(1538 543)"><path d="M0 -88.6L76.7 -44.3L76.7 44.3L0 88.6L-76.7 44.3L-76.7 -44.3Z" fill="#21a1ea"></path></g><g transform="translate(3606 625)"><path d="M0 -48L41.6 -24L41.6 24L0 48L-41.6 24L-41.6 -24Z" fill="#21a1ea"></path></g><g transform="translate(1763 466)"><path d="M0 -66L57.2 -33L57.2 33L0 66L-57.2 33L-57.2 -33Z" fill="#21a1ea"></path></g><g transform="translate(1309 173)"><path d="M0 -37L32 -18.5L32 18.5L0 37L-32 18.5L-32 -18.5Z" fill="#21a1ea"></path></g><g transform="translate(821 115)"><path d="M0 -59L51.1 -29.5L51.1 29.5L0 59L-51.1 29.5L-51.1 -29.5Z" fill="#21a1ea"></path></g><g transform="translate(3383 236)"><path d="M0 -82L71 -41L71 41L0 82L-71 41L-71 -41Z" fill="#21a1ea"></path></g><g transform="translate(2257 171)"><path d="M0 -68L58.9 -34L58.9 34L0 68L-58.9 34L-58.9 -34Z" fill="#21a1ea"></path></g><g transform="translate(2571 1001)"><path d="M0 -43L37.2 -21.5L37.2 21.5L0 43L-37.2 21.5L-37.2 -21.5Z" fill="#21a1ea"></path></g><g transform="translate(711 771)"><path d="M0 -39L33.8 -19.5L33.8 19.5L0 39L-33.8 19.5L-33.8 -19.5Z" fill="#21a1ea"></path></g><g transform="translate(1077 1041)"><path d="M0 -61L52.8 -30.5L52.8 30.5L0 61L-52.8 30.5L-52.8 -30.5Z" fill="#21a1ea"></path></g><g transform="translate(2751 463)"><path d="M0 -64L55.4 -32L55.4 32L0 64L-55.4 32L-55.4 -32Z" fill="#21a1ea"></path></g><g transform="translate(325 23)"><path d="M0 -54L46.8 -27L46.8 27L0 54L-46.8 27L-46.8 -27Z" fill="#21a1ea"></path></g><g transform="translate(3330 672)"><path d="M0 -41L35.5 -20.5L35.5 20.5L0 41L-35.5 20.5L-35.5 -20.5Z" fill="#21a1ea"></path></g><g transform="translate(1011 140)"><path d="M0 -78L67.5 -39L67.5 39L0 78L-67.5 39L-67.5 -39Z" fill="#21a1ea"></path></g><g transform="translate(3121 506)"><path d="M0 -66L57.2 -33L57.2 33L0 66L-57.2 33L-57.2 -33Z" fill="#21a1ea"></path></g><g transform="translate(3585 175)"><path d="M0 -74L64.1 -37L64.1 37L0 74L-64.1 37L-64.1 -37Z" fill="#21a1ea"></path></g><g transform="translate(382 1065)"><path d="M0 -46L39.8 -23L39.8 23L0 46L-39.8 23L-39.8 -23Z" fill="#21a1ea"></path></g><g transform="translate(2043 287)"><path d="M0 -67L58 -33.5L58 33.5L0 67L-58 33.5L-58 -33.5Z" fill="#21a1ea"></path></g><g transform="translate(1781 81)"><path d="M0 -81L70.1 -40.5L70.1 40.5L0 81L-70.1 40.5L-70.1 -40.5Z" fill="#21a1ea"></path></g><g transform="translate(488 772)"><path d="M0 -40L34.6 -20L34.6 20L0 40L-34.6 20L-34.6 -20Z" fill="#21a1ea"></path></g><g transform="translate(3357 849)"><path d="M0 -77L66.7 -38.5L66.7 38.5L0 77L-66.7 38.5L-66.7 -38.5Z" fill="#21a1ea"></path></g><g transform="translate(2116 913)"><path d="M0 -49L42.4 -24.5L42.4 24.5L0 49L-42.4 24.5L-42.4 -24.5Z" fill="#21a1ea"></path></g><g transform="translate(3555 945)"><path d="M0 -65L56.3 -32.5L56.3 32.5L0 65L-56.3 32.5L-56.3 -32.5Z" fill="#21a1ea"></path></g><g transform="translate(2829 1078)"><path d="M0 -79L68.4 -39.5L68.4 39.5L0 79L-68.4 39.5L-68.4 -39.5Z" fill="#21a1ea"></path></g><g transform="translate(25 263)"><path d="M0 -35L30.3 -17.5L30.3 17.5L0 35L-30.3 17.5L-30.3 -17.5Z" fill="#21a1ea"></path></g><g transform="translate(2011 766)"><path d="M0 -40L34.6 -20L34.6 20L0 40L-34.6 20L-34.6 -20Z" fill="#21a1ea"></path></g><g transform="translate(1238 466)"><path d="M0 -78L67.5 -39L67.5 39L0 78L-67.5 39L-67.5 -39Z" fill="#21a1ea"></path></g><g transform="translate(3024 999)"><path d="M0 -87L75.3 -43.5L75.3 43.5L0 87L-75.3 43.5L-75.3 -43.5Z" fill="#21a1ea"></path></g><g transform="translate(962 519)"><path d="M0 -43L37.2 -21.5L37.2 21.5L0 43L-37.2 21.5L-37.2 -21.5Z" fill="#21a1ea"></path></g><g transform="translate(1442 310)"><path d="M0 -79L68.4 -39.5L68.4 39.5L0 79L-68.4 39.5L-68.4 -39.5Z" fill="#21a1ea"></path></g><g transform="translate(3089 144)"><path d="M0 -79L68.4 -39.5L68.4 39.5L0 79L-68.4 39.5L-68.4 -39.5Z" fill="#21a1ea"></path></g><g transform="translate(2421 372)"><path d="M0 -64L55.4 -32L55.4 32L0 64L-55.4 32L-55.4 -32Z" fill="#21a1ea"></path></g><g transform="translate(1579 146)"><path d="M0 -33L28.6 -16.5L28.6 16.5L0 33L-28.6 16.5L-28.6 -16.5Z" fill="#21a1ea"></path></g><g transform="translate(2846 24)"><path d="M0 -52L45 -26L45 26L0 52L-45 26L-45 -26Z" fill="#21a1ea"></path></g><g transform="translate(1284 685)"><path d="M0 -71L61.5 -35.5L61.5 35.5L0 71L-61.5 35.5L-61.5 -35.5Z" fill="#21a1ea"></path></g><g transform="translate(1783 280)"><path d="M0 -76L65.8 -38L65.8 38L0 76L-65.8 38L-65.8 -38Z" fill="#21a1ea"></path></g><g transform="translate(1053 859)"><path d="M0 -67L58 -33.5L58 33.5L0 67L-58 33.5L-58 -33.5Z" fill="#21a1ea"></path></g><g transform="translate(2947 300)"><path d="M0 -46L39.8 -23L39.8 23L0 46L-39.8 23L-39.8 -23Z" fill="#21a1ea"></path></g><g transform="translate(3565 445)"><path d="M0 -55L47.6 -27.5L47.6 27.5L0 55L-47.6 27.5L-47.6 -27.5Z" fill="#21a1ea"></path></g><g transform="translate(285 540)"><path d="M0 -41L35.5 -20.5L35.5 20.5L0 41L-35.5 20.5L-35.5 -20.5Z" fill="#21a1ea"></path></g><g transform="translate(3013 673)"><path d="M0 -73L63.2 -36.5L63.2 36.5L0 73L-63.2 36.5L-63.2 -36.5Z" fill="#21a1ea"></path></g><g transform="translate(2183 583)"><path d="M0 -80L69.3 -40L69.3 40L0 80L-69.3 40L-69.3 -40Z" fill="#21a1ea"></path></g><g transform="translate(3435 41)"><path d="M0 -46L39.8 -23L39.8 23L0 46L-39.8 23L-39.8 -23Z" fill="#21a1ea"></path></g><g transform="translate(299 806)"><path d="M0 -74L64.1 -37L64.1 37L0 74L-64.1 37L-64.1 -37Z" fill="#21a1ea"></path></g><g transform="translate(1964 523)"><path d="M0 -75L65 -37.5L65 37.5L0 75L-65 37.5L-65 -37.5Z" fill="#21a1ea"></path></g><g transform="translate(1618 744)"><path d="M0 -70L60.6 -35L60.6 35L0 70L-60.6 35L-60.6 -35Z" fill="#21a1ea"></path></g><g transform="translate(1669 1065)"><path d="M0 -39L33.8 -19.5L33.8 19.5L0 39L-33.8 19.5L-33.8 -19.5Z" fill="#21a1ea"></path></g><g transform="translate(549 240)"><path d="M0 -87L75.3 -43.5L75.3 43.5L0 87L-75.3 43.5L-75.3 -43.5Z" fill="#21a1ea"></path></g><g transform="translate(3803 231)"><path d="M0 -74L64.1 -37L64.1 37L0 74L-64.1 37L-64.1 -37Z" fill="#21a1ea"></path></g><g transform="translate(2360 1033)"><path d="M0 -57L49.4 -28.5L49.4 28.5L0 57L-49.4 28.5L-49.4 -28.5Z" fill="#21a1ea"></path></g><g transform="translate(3163 791)"><path d="M0 -35L30.3 -17.5L30.3 17.5L0 35L-30.3 17.5L-30.3 -17.5Z" fill="#21a1ea"></path></g><g transform="translate(872 301)"><path d="M0 -77L66.7 -38.5L66.7 38.5L0 77L-66.7 38.5L-66.7 -38.5Z" fill="#21a1ea"></path></g><g transform="translate(802 987)"><path d="M0 -48L41.6 -24L41.6 24L0 48L-41.6 24L-41.6 -24Z" fill="#21a1ea"></path></g><g transform="translate(1386 940)"><path d="M0 -42L36.4 -21L36.4 21L0 42L-36.4 21L-36.4 -21Z" fill="#21a1ea"></path></g><g transform="translate(1832 720)"><path d="M0 -37L32 -18.5L32 18.5L0 37L-32 18.5L-32 -18.5Z" fill="#21a1ea"></path></g><g transform="translate(55 535)"><path d="M0 -69L59.8 -34.5L59.8 34.5L0 69L-59.8 34.5L-59.8 -34.5Z" fill="#21a1ea"></path></g><g transform="translate(2612 4)"><path d="M0 -49L42.4 -24.5L42.4 24.5L0 49L-42.4 24.5L-42.4 -24.5Z" fill="#21a1ea"></path></g><g transform="translate(2622 743)"><path d="M0 -69L59.8 -34.5L59.8 34.5L0 69L-59.8 34.5L-59.8 -34.5Z" fill="#21a1ea"></path></g><g transform="translate(3348 482)"><path d="M0 -57L49.4 -28.5L49.4 28.5L0 57L-49.4 28.5L-49.4 -28.5Z" fill="#21a1ea"></path></g><g transform="translate(1852 977)"><path d="M0 -50L43.3 -25L43.3 25L0 50L-43.3 25L-43.3 -25Z" fill="#21a1ea"></path></g><g transform="translate(2381 27)"><path d="M0 -57L49.4 -28.5L49.4 28.5L0 57L-49.4 28.5L-49.4 -28.5Z" fill="#21a1ea"></path></g><g transform="translate(2425 758)"><path d="M0 -57L49.4 -28.5L49.4 28.5L0 57L-49.4 28.5L-49.4 -28.5Z" fill="#21a1ea"></path></g><g transform="translate(2725 179)"><path d="M0 -58L50.2 -29L50.2 29L0 58L-50.2 29L-50.2 -29Z" fill="#21a1ea"></path></g><g transform="translate(2829 669)"><path d="M0 -52L45 -26L45 26L0 52L-45 26L-45 -26Z" fill="#21a1ea"></path></g><g transform="translate(3758 865)"><path d="M0 -63L54.6 -31.5L54.6 31.5L0 63L-54.6 31.5L-54.6 -31.5Z" fill="#21a1ea"></path></g><g transform="translate(556 46)"><path d="M0 -77L66.7 -38.5L66.7 38.5L0 77L-66.7 38.5L-66.7 -38.5Z" fill="#21a1ea"></path></g><g transform="translate(519 484)"><path d="M0 -53L45.9 -26.5L45.9 26.5L0 53L-45.9 26.5L-45.9 -26.5Z" fill="#21a1ea"></path></g><g transform="translate(1106 628)"><path d="M0 -78L67.5 -39L67.5 39L0 78L-67.5 39L-67.5 -39Z" fill="#21a1ea"></path></g><g transform="translate(2566 488)"><path d="M0 -48L41.6 -24L41.6 24L0 48L-41.6 24L-41.6 -24Z" fill="#21a1ea"></path></g><g transform="translate(668 379)"><path d="M0 -54L46.8 -27L46.8 27L0 54L-46.8 27L-46.8 -27Z" fill="#21a1ea"></path></g><g transform="translate(1181 36)"><path d="M0 -71L61.5 -35.5L61.5 35.5L0 71L-61.5 35.5L-61.5 -35.5Z" fill="#21a1ea"></path></g><g transform="translate(107 791)"><path d="M0 -56L48.5 -28L48.5 28L0 56L-48.5 28L-48.5 -28Z" fill="#21a1ea"></path></g><g transform="translate(2105 64)"><path d="M0 -55L47.6 -27.5L47.6 27.5L0 55L-47.6 27.5L-47.6 -27.5Z" fill="#21a1ea"></path></g><g transform="translate(64 1014)"><path d="M0 -46L39.8 -23L39.8 23L0 46L-39.8 23L-39.8 -23Z" fill="#21a1ea"></path></g><g transform="translate(2388 567)"><path d="M0 -71L61.5 -35.5L61.5 35.5L0 71L-61.5 35.5L-61.5 -35.5Z" fill="#21a1ea"></path></g><g transform="translate(599 1036)"><path d="M0 -82L71 -41L71 41L0 82L-71 41L-71 -41Z" fill="#21a1ea"></path></g><g transform="translate(3804 13)"><path d="M0 -34L29.4 -17L29.4 17L0 34L-29.4 17L-29.4 -17Z" fill="#21a1ea"></path></g><g transform="translate(3214 13)"><path d="M0 -74L64.1 -37L64.1 37L0 74L-64.1 37L-64.1 -37Z" fill="#21a1ea"></path></g><g transform="translate(351 307)"><path d="M0 -48L41.6 -24L41.6 24L0 48L-41.6 24L-41.6 -24Z" fill="#21a1ea"></path></g><g transform="translate(134 35)"><path d="M0 -34L29.4 -17L29.4 17L0 34L-29.4 17L-29.4 -17Z" fill="#21a1ea"></path></g><g transform="translate(1255 1063)"><path d="M0 -34L29.4 -17L29.4 17L0 34L-29.4 17L-29.4 -17Z" fill="#21a1ea"></path></g><g transform="translate(743 541)"><path d="M0 -38L32.9 -19L32.9 19L0 38L-32.9 19L-32.9 -19Z" fill="#21a1ea"></path></g><g transform="translate(2222 404)"><path d="M0 -68L58.9 -34L58.9 34L0 68L-58.9 34L-58.9 -34Z" fill="#21a1ea"></path></g><g transform="translate(2021 1067)"><path d="M0 -54L46.8 -27L46.8 27L0 54L-46.8 27L-46.8 -27Z" fill="#21a1ea"></path></g><g transform="translate(3813 513)"><path d="M0 -49L42.4 -24.5L42.4 24.5L0 49L-42.4 24.5L-42.4 -24.5Z" fill="#21a1ea"></path></g><g transform="translate(1617 358)"><path d="M0 -48L41.6 -24L41.6 24L0 48L-41.6 24L-41.6 -24Z" fill="#21a1ea"></path></g><g transform="translate(3268 1067)"><path d="M0 -35L30.3 -17.5L30.3 17.5L0 35L-30.3 17.5L-30.3 -17.5Z" fill="#21a1ea"></path></g><g transform="translate(2731 923)"><path d="M0 -41L35.5 -20.5L35.5 20.5L0 41L-35.5 20.5L-35.5 -20.5Z" fill="#21a1ea"></path></g><g transform="translate(1089 338)"><path d="M0 -58L50.2 -29L50.2 29L0 58L-50.2 29L-50.2 -29Z" fill="#21a1ea"></path></g><g transform="translate(2547 193)"><path d="M0 -79L68.4 -39.5L68.4 39.5L0 79L-68.4 39.5L-68.4 -39.5Z" fill="#21a1ea"></path></g><g transform="translate(3766 1055)"><path d="M0 -61L52.8 -30.5L52.8 30.5L0 61L-52.8 30.5L-52.8 -30.5Z" fill="#21a1ea"></path></g><g transform="translate(1436 6)"><path d="M0 -62L53.7 -31L53.7 31L0 62L-53.7 31L-53.7 -31Z" fill="#21a1ea"></path></g><g transform="translate(3218 323)"><path d="M0 -57L49.4 -28.5L49.4 28.5L0 57L-49.4 28.5L-49.4 -28.5Z" fill="#21a1ea"></path></g><g transform="translate(897 770)"><path d="M0 -87L75.3 -43.5L75.3 43.5L0 87L-75.3 43.5L-75.3 -43.5Z" fill="#21a1ea"></path></g><g transform="translate(179 360)"><path d="M0 -49L42.4 -24.5L42.4 24.5L0 49L-42.4 24.5L-42.4 -24.5Z" fill="#21a1ea"></path></g><g transform="translate(2246 775)"><path d="M0 -55L47.6 -27.5L47.6 27.5L0 55L-47.6 27.5L-47.6 -27.5Z" fill="#21a1ea"></path></g><g transform="translate(3797 692)"><path d="M0 -45L39 -22.5L39 22.5L0 45L-39 22.5L-39 -22.5Z" fill="#21a1ea"></path></g></g></svg>